<mxfile host="65bd71144e">
    <diagram id="HIP3nbAZw_EuaXWnEj3U" name="Page-1">
        <mxGraphModel dx="1086" dy="706" grid="1" gridSize="10" guides="1" tooltips="1" connect="1" arrows="1" fold="1" page="1" pageScale="1" pageWidth="850" pageHeight="1100" background="#007FFF" math="0" shadow="0">
            <root>
                <mxCell id="0"/>
                <mxCell id="1" parent="0"/>
                <mxCell id="7" value="http://ics2o.mths.ca" style="swimlane;whiteSpace=wrap;html=1;" parent="1" vertex="1">
                    <mxGeometry x="40" y="40" width="760" height="480" as="geometry"/>
                </mxCell>
                <mxCell id="8" value="" style="rounded=0;whiteSpace=wrap;html=1;fillColor=#E54409;fontColor=#ffffff;strokeColor=#B20000;" parent="7" vertex="1">
                    <mxGeometry y="20" width="760" height="50" as="geometry"/>
                </mxCell>
                <mxCell id="10" value="&lt;font style=&quot;font-size: 30px;&quot;&gt;Convert Fahrenheit to Celsius&lt;/font&gt;" style="text;html=1;strokeColor=none;fillColor=none;align=center;verticalAlign=middle;whiteSpace=wrap;rounded=0;" parent="7" vertex="1">
                    <mxGeometry x="155" y="30" width="460" height="30" as="geometry"/>
                </mxCell>
                <mxCell id="12" value="&lt;font color=&quot;#000000&quot; style=&quot;font-size: 25px;&quot;&gt;Convert Fahrenheit to Celsius:&lt;/font&gt;" style="text;html=1;strokeColor=none;fillColor=none;align=center;verticalAlign=middle;whiteSpace=wrap;rounded=0;" parent="7" vertex="1">
                    <mxGeometry x="-30" y="100" width="460" height="30" as="geometry"/>
                </mxCell>
                <mxCell id="13" value="(32°F − 32) × 5/9 = 0°C" style="text;html=1;strokeColor=none;fillColor=none;align=center;verticalAlign=middle;whiteSpace=wrap;rounded=0;fontSize=25;fontColor=#000000;" parent="7" vertex="1">
                    <mxGeometry x="30" y="140" width="280" height="30" as="geometry"/>
                </mxCell>
                <mxCell id="15" value="&lt;font style=&quot;font-size: 20px;&quot;&gt;Fahrenheit&lt;/font&gt;:" style="text;html=1;strokeColor=none;fillColor=none;align=center;verticalAlign=middle;whiteSpace=wrap;rounded=0;fontSize=25;fontColor=#000000;" parent="7" vertex="1">
                    <mxGeometry x="40" y="200" width="60" height="30" as="geometry"/>
                </mxCell>
                <mxCell id="16" value="" style="rounded=1;whiteSpace=wrap;html=1;fontSize=20;fontColor=#000000;fillColor=none;strokeColor=#0F0303;" parent="7" vertex="1">
                    <mxGeometry x="130" y="205" width="140" height="20" as="geometry"/>
                </mxCell>
                <mxCell id="17" value="Convert" style="rounded=1;whiteSpace=wrap;html=1;strokeColor=#C73500;fontSize=20;fontColor=#000000;fillColor=#FA5B16;" parent="7" vertex="1">
                    <mxGeometry x="50" y="270" width="120" height="42" as="geometry"/>
                </mxCell>
                <mxCell id="18" value="" style="shape=image;verticalLabelPosition=bottom;labelBackgroundColor=default;verticalAlign=top;aspect=fixed;imageAspect=0;image=data:image/jpeg,/9j/4AAQSkZJRgABAQEBLAEsAAD/4QB2RXhpZgAASUkqAAgAAAADAA4BAgAsAAAAMgAAABoBBQABAAAAXgAAABsBBQABAAAAZgAAAAAAAABDZWxzaXVzIGFuZCBGYWhyZW5oZWl0IHRoZXJtb21ldGVycy4gVmVjdG9yLiwBAAABAAAALAEAAAEAAAD/4QVLaHR0cDovL25zLmFkb2JlLmNvbS94YXAvMS4wLwA8P3hwYWNrZXQgYmVnaW49Iu+7vyIgaWQ9Ilc1TTBNcENlaGlIenJlU3pOVGN6a2M5ZCI/Pgo8eDp4bXBtZXRhIHhtbG5zOng9ImFkb2JlOm5zOm1ldGEvIj4KCTxyZGY6UkRGIHhtbG5zOnJkZj0iaHR0cDovL3d3dy53My5vcmcvMTk5OS8wMi8yMi1yZGYtc3ludGF4LW5zIyI+CgkJPHJkZjpEZXNjcmlwdGlvbiByZGY6YWJvdXQ9IiIgeG1sbnM6cGhvdG9zaG9wPSJodHRwOi8vbnMuYWRvYmUuY29tL3Bob3Rvc2hvcC8xLjAvIiB4bWxuczpJcHRjNHhtcENvcmU9Imh0dHA6Ly9pcHRjLm9yZy9zdGQvSXB0YzR4bXBDb3JlLzEuMC94bWxucy8iICAgeG1sbnM6R2V0dHlJbWFnZXNHSUZUPSJodHRwOi8veG1wLmdldHR5aW1hZ2VzLmNvbS9naWZ0LzEuMC8iIHhtbG5zOmRjPSJodHRwOi8vcHVybC5vcmcvZGMvZWxlbWVudHMvMS4xLyIgeG1sbnM6cGx1cz0iaHR0cDovL25zLnVzZXBsdXMub3JnL2xkZi94bXAvMS4wLyIgIHhtbG5zOmlwdGNFeHQ9Imh0dHA6Ly9pcHRjLm9yZy9zdGQvSXB0YzR4bXBFeHQvMjAwOC0wMi0yOS8iIHhtbG5zOnhtcFJpZ2h0cz0iaHR0cDovL25zLmFkb2JlLmNvbS94YXAvMS4wL3JpZ2h0cy8iIHBob3Rvc2hvcDpDcmVkaXQ9IkdldHR5IEltYWdlcy9pU3RvY2twaG90byIgR2V0dHlJbWFnZXNHSUZUOkFzc2V0SUQ9Ijk1MzcxNTQ4MCIgeG1wUmlnaHRzOldlYlN0YXRlbWVudD0iaHR0cHM6Ly93d3cuaXN0b2NrcGhvdG8uY29tL2xlZ2FsL2xpY2Vuc2UtYWdyZWVtZW50P3V0bV9tZWRpdW09b3JnYW5pYyZhbXA7dXRtX3NvdXJjZT1nb29nbGUmYW1wO3V0bV9jYW1wYWlnbj1pcHRjdXJsIiA+CjxkYzpjcmVhdG9yPjxyZGY6U2VxPjxyZGY6bGk+cGlhbGhvdmlrPC9yZGY6bGk+PC9yZGY6U2VxPjwvZGM6Y3JlYXRvcj48ZGM6ZGVzY3JpcHRpb24+PHJkZjpBbHQ+PHJkZjpsaSB4bWw6bGFuZz0ieC1kZWZhdWx0Ij5DZWxzaXVzIGFuZCBGYWhyZW5oZWl0IHRoZXJtb21ldGVycy4gVmVjdG9yLjwvcmRmOmxpPjwvcmRmOkFsdD48L2RjOmRlc2NyaXB0aW9uPgo8cGx1czpMaWNlbnNvcj48cmRmOlNlcT48cmRmOmxpIHJkZjpwYXJzZVR5cGU9J1Jlc291cmNlJz48cGx1czpMaWNlbnNvclVSTD5odHRwczovL3d3dy5pc3RvY2twaG90by5jb20vcGhvdG8vbGljZW5zZS1nbTk1MzcxNTQ4MC0/dXRtX21lZGl1bT1vcmdhbmljJmFtcDt1dG1fc291cmNlPWdvb2dsZSZhbXA7dXRtX2NhbXBhaWduPWlwdGN1cmw8L3BsdXM6TGljZW5zb3JVUkw+PC9yZGY6bGk+PC9yZGY6U2VxPjwvcGx1czpMaWNlbnNvcj4KCQk8L3JkZjpEZXNjcmlwdGlvbj4KCTwvcmRmOlJERj4KPC94OnhtcG1ldGE+Cjw/eHBhY2tldCBlbmQ9InciPz4K/+0AeFBob3Rvc2hvcCAzLjAAOEJJTQQEAAAAAABcHAJQAAlwaWFsaG92aWscAngALENlbHNpdXMgYW5kIEZhaHJlbmhlaXQgdGhlcm1vbWV0ZXJzLiBWZWN0b3IuHAJuABhHZXR0eSBJbWFnZXMvaVN0b2NrcGhvdG//2wBDAAoHBwgHBgoICAgLCgoLDhgQDg0NDh0VFhEYIx8lJCIfIiEmKzcvJik0KSEiMEExNDk7Pj4+JS5ESUM8SDc9Pjv/2wBDAQoLCw4NDhwQEBw7KCIoOzs7Ozs7Ozs7Ozs7Ozs7Ozs7Ozs7Ozs7Ozs7Ozs7Ozs7Ozs7Ozs7Ozs7Ozs7Ozs7Ozv/wgARCAJkAmQDAREAAhEBAxEB/8QAGwABAAIDAQEAAAAAAAAAAAAAAAMEAQIGBQf/xAAaAQEAAwEBAQAAAAAAAAAAAAAAAgMEAQUG/9oADAMBAAIQAxAAAAHswAAAAAAAAAAAAAAAAAAAAAAAAAAAAAAAAAAAAAAAAAAAAAAAAAAAAAAAAAAAAAAAAAAAAAAAAAAAAAAAAAAAAAAAAAAAAAAAAAAAAAAAAAAAAAAAAAAAAAAAAAAAAAAAAAAAAAAAAAAAAAAAAAAAAAAAAAAAAAAAAAAAAAAAAAAAAAAAAAAAAAAAAAAAAAAAAAAAAAAAAAAAAAAAAAAAAAAAAAAAAAAAAAAAAAAAAAAAAAAAAYMGAbGQDQ2ICwAAAAAAAAADBgwDYyAag0JDIAAAAAAAAAAAAAAABqRmAAbm5k5QsEJ0BZAAAAAAAABqRmAAbEhk5YkNjoTYAAAAAAAAAAAAAAAGhGAAAbEgPAPQLRMAAAAAAAAakQAABklB4xUOkMgAAAAAAAAAAAAAAGCEAgcpd5OXeSAkNymeIdESgAAAAAAAwRGAQlDkpi/2IG5IeeWCwAAAAAAAAAAAAAAADQjBU7znp1zd5uehGXpwsGSYAAompKWwAAAAAaEYK3O81y2TkpC92HsSqGSYAAqkJoTF0AAAAAAAAAAAAEZoDwJQinCy5L3m56lN+HRMZAB4x556J7AAAAAAIzQHhcnTjba52V3Z3155c94JjIAKJQK5dPYAAAAAAAAAAAABEag56de0oWu8m63cuUaDomICoCwbAkJQAAAAARmgPAjZFy23zszu7t+eXPYiYhKYJyyQA3JwAAAAAAAAAAAARGoOenXvKF3vJu83LNGjDomMgAAAAAAAAEZoDwI2R8tu8lM7vxcsy57ETGQAAAAAAAAAAAAAAAARGoOenXvKF7vJ+82LFGjDomICoTF0AAAAAAAEZoDwI2R8tvclO7tztyzI7ETEJTJS8AAAAAAAAAAAAAAARGoOenXvKF7vJ+82LFGjDomMgAiISQnAAAAABGaA8CNkfLb3JTu7c7csyOxExkAEZADYsgAAAAAAAAAAAAiNQc9OveUL3eT95sWKNGHRMZABz5AXz2AAAAAARmgPAjZHy29yU7u3O3LMjsRMZAB5h55TPXPYAAAAAAAAAAAABEag56de8oXu8n7zYsUaMOiYgKgLBMVSUtAAAAAAjNAeBGyPlt7kp3duduWZHYiYhKYJycqmpKXAAAAAAAAAAAAARGoOenXvKF7vJ+82LFGjDomMgAAAAAAAAEZoDwI2R8tvclO7tztyzI7ETGQAAAAAAAAAAAAAAAARGoOenXvKF7vJ+82LFGjDomIiuSFoAAAAAAAEZoDwI2R8tvclO7tztyzI7ETEZWNy2AAAAAAAAAAAAAAARGoOenXvKF7vJ+82LFGjDomMGhkkIzJk2AAAAABGaA8CNkfLb3JTu7c7csyOxExg0MkhoYMm4AAAAAAAAAAAABEag56de8oXu8n7zYsUaMOiYyADyzyT0j2AAAAAARmgPAjZHy29yU7u3O3LMjsRMZAB4p5Z6p7IAAAAAAAAAAAABEag56de8oXu8n7zYsUaMOiYgKgLBARFougAAAAAjNAeBGyPlt7kp3duduWZHYiYhKYJzQqlovgAAAAAAAAAAAAERqDnp17yhe7yfvNixRow6JjIAAAAAAAABGaA8CNkfLb3JTu7c7csyOxExkAAAAAAAAAAAAAAAAERqDnp17yhe7yfvNixRow6JgYMmQAAAAAAARmgPAjZHy29yU7u3O3LMjsRMDBkyAAAAAAAAAAAAAAARGoOenXvKF7vJ+82LFGjDomICsSlwAAAAAAAEZoDk6t3l1ehPC6TlmzvV6/nbE6BMRFQkLoAAAAAAAAAAAAAABEag56de8oXu8n7zYsUaMOiYyADyTzy+euAAAAACM0ByNW/yqfRmhfJyzLvYbPm7E84mMgA8Mql49gAAAAAAAAAAAAAiNQc9OveUL3eT95sWKNGHRMQFQFgpgmPRAAAAABGaA5Grf5VPozQvk5Zl3sNnzdiecTEJTBOQFIunpgAAAAAAAAAAAAERqDnp17yhe7yfvNixRow6JjIAAAAAAAABGaA5Grf5VPozQvk5Zl3sNnzdiecTGQAAAAAAAAAAAAAAAARGoOenXvKF7vJ+82LFGjDomMgAAAAAAAAEZoDkat/lU+jNC+TlmXew2fN2J5xMZAAAAAAAAAAAAAAAABEag5TRmh0ZrNkJuxz3nv+X6u0ZiYgKhMXQAAAAAAARmgORq3+VT6M0L5OWZd7DZ83YnnExCUyUvAAAAAAAAAAAAAAAERqDkdeSrpyWLK5Jx2c6fxva3jMTGQAUCiWj0wAAAAARmgORq3+VT6M0L5OWZd7DZ83YnnExkAFM8ouHqgAAAAAAAAAAAAERqDkdeSrpyWLK5Jx2c6fxva3jMTEBUBYMnkFw9UAAAAAEZoDkat/lU+jNC+TlmXew2fN2J5xMQlME5EeQeieuAAAAAAAAAAAAARGoOR15KunJYsrknHZzp/G9reMxMZAAAAAAAAAIzQHI1b/ACqfRmhfJyzLvYbPm7E84mMgAAAAAAAAAAAAAAAAiNQcjryVdOSxZXJOOznT+N7W8ZiYyAAAAAAAAARmgORq3+VT6M0L5OWZd7DZ83YnnExkAAAAAAAAAAAAAAAAERqDkdeSrpyWLK5Jx2c6fxva3jMTEBUJi6AAAAAAACM0ByNW/wAqn0ZoXycsy72Gz5uxPOJiEpkpeAAAAAAAAAAAAAAAIjUHI68lXTksWVyTjs50/je1vGYmMgA8stFoAAAAAAjNAcjVv8qn0ZoXycsy72Gz5uxPOJjIAKBTLZ6AAAAAAAAAAAAABEag5HXkq6cliyuScdnOn8b2t4zExoRg3PFLp6QAAAAABGaA5Grf5VPozQvk5Zl3sNnzdiecTGpEDY80pls9kAAAAAAAAAAAAAiNQcjryVdOSxZXJOOznT+N7W8ZiYjIQSkhkyAAAAAARmgORq3+VT6M0L5OWZd7DZ83YnnExoQAkJjBkyAAAAAAAAAAAAARGoOR15KunJYsrknHZzp/G9reMxMZAAAAAAAAAIzQHI1b/Kp9GaF8nLMu9hs+bsTziYyAAAAAAAAAAAAAAAACI1ByOvJV05LFlck47OdP43tbxmJiAqExdAAAAAAABGaA5Grf5VPozQvk5Zl3sNnzdiecTEJTJS8AAAAAAAAAAAAAAARGoOR15KunJYsrknHZzp/G9reMxMZABCUiYugAAAAAjNAcjVv8qn0ZoXycsy72Gz5uxPOJjIAKRuWgAAAAAAAAAAAAARGoOR15KunJYsrknHZzp/G9reMxMZAITBzJ6p7AAAAAAIzQHI1b/Kp9GaF8nLMu9hs+bsTziYyADxwewAAAAAAAAAAAAACI1ByOvJV05LFlck47OdP43tbxmJiAqAsFogMk4AAAAAIzQHI1b/Kp9GaF8nLMu9hs+bsTziYhKYJyU3JAAAAAAAAAAAAAARGoOR15KunJYsrknHZzp/G9reMxMZAAAAAAAAAIzQHI1b/Kp9GaF8nLMu9hs+bsTziYyAAAAAAAAAAAAAAAACI1ByOvJV05LFlck47OdP43tbxmJiAqExdAAAAAAABGaA5Grf5VPozQvk5Zl3sNnzdiecTEJTJS8AAAAAAAAAAAAAAARGoOR15KunJYsrknHZzp/G9reMxMZABXIzcsgAAAAAjNAcjVv8qn0ZoXycsy72Gz5uxPOJjIAICIyWwAAAAAAAAAAAACI1ByOvJV05LFlck47OdP43tbxmJjIBCUTzC+ewAAAAACM0ByNW/yqfRmhfJyzLvYbPm7E84mMgEZQPMLZ7YAAAAAAAAAAAABEag5HXkq6cliyuScdnOn8b2t4zExAVAWDBoblwAAAAAEZoDkat/lU+jNC+TlmXew2fN2J5xMQlME5k0BeAAAAAAAAAAAAAIjUHI68lXTksWVyTjs50/je1vGYmMgAAAAAAAAEZoDkat/lU+jNC+TlmXew2fN2J5xMZAAAAAAAAAAAAAAAABEag5HXkq6cliyuScdnOn8b2t4zExCVyUtAAAAAAAAjNAcjVv8qn0ZoXycsy72Gz5uxPOJiMqkhbAAAAAAAAAAAAAAAIjUHI68lXTksWVyTjs50/je1vGYmMGpk3NDAJAAAAAARmgORq3+VT6M0L5OWZd7DZ83YnnExg1Mm4IzBKAAAAAAAAAAAAARGoOR15KunJYsrknHZzp/G9reMxMZAISoeAese0AAAAACM0ByNW/yqfRmhfJyzLvYbPm7E84mMgEZQPFLx74AAAAAAAAAAAABEag5HXkq6cliyuScdnOn8b2t4zExAVQTmhVLJfAAAAABGaA5Grf5VPozQvk5Zl3sNnzdiecTEJUBMSnnkh6YAAAAAAAAAAAANCMA5HXkq6cliyuScdnOn8b2t4zGSUyAAAAAAAAaEYByNW/yqfRmhfJyzLvYbPm7E84ySmQAAAAAAAAAAAAAADQjAK3Y8jsyYvzWLK5Jx2c9vzvSv5dYGxIZAAAAAAANSIAr8lxtPo1q9s0L5OWZd6DR43sX+YBklMgAAAAAAAAAAAAAGCIwDybKuW15NpwmnCedck47OC/l1e153pZdEhuAAAAAADBEYB5cbePp9LWNsnLZYXScsy6PRsxdLq8HbvBuSAAAAAAAAAAAAAAEZoCjKHHbcUllckoySjJKO8o7OAelj2exg9EZJTIAAAAABoRgqcnwtHqI3yRntye/LN+Ty6B6luDpNXhATGQAAAAAAAAAAAAAQmAcbrx1b6Jpw9TNph0ZrlV1mE45QqaM93Nq8zbi6LyfWmrtEpsAAAAAAQmAcbTv8uvd6s893tUiXk0er7Nvnacn5NPpe1f5VCvZ7+jx7lmUSG4AAAAAAAAAAAABghBB2PDb8E9ld2MvbxbaG3F6mPZ5e7BpKPoZdcFtWko2arfUw7xuSAAAAAAwQgj5355n9eSOjobvNr17Ohv8nx6PVsypsSooV7Ds8qa8bug0+MNyQAAAAAAAAAAAAA1IgebOvk92GxbVLKHs5NkNtXp5Nhynoz+fqyW6NFHTlv5tXt+b6Y3JAAAAAAYIQUoz4XP7E0b5I2+lPN6tuGtHRpGdqefzq9u6NSGmzKnqNnzw2JQAAAAAAAAAAAADUiB506+T34LNtUsoexj2w21Rzrgtr6LyfW5v1/HAv5tXt+b6Y3JAAAAAAYIQUuT4bN7M8dEkbOk0eP5tXoWpZ9OTtTz+dXtoV7B6FmPqNfz42JQAAAAAAAAAAAADBCCHvOI9DzrV1Ms4exi2w202ab/N2Y/e8z1Oc9bxwPXw7/TxbhuSAAAAAAwQg1Pnub2pa9U3LOv1/Pclj+l9e7zMuWp5/Kp9GjDWPau8z3tPjDckAAAAAAAAAAAAABCYByezFX15J5w9LNpisrlrn6GXX52vJR05Rk6Xx/ZkhYJTYAAAAAAiNQclT6HmU+p6CHo2ZvGo9SbtfQ6fEj5Zz2b2tXR1+z5uzPOJDcAAAAAAAAAAAAAEZoCrKHK+l5s11O/Y5AAB62Ld6mHeMkpkAAAAAA0IwV+S4vL7mYa9+TAAA9i7zeg0+KMkpkAAAAAAAAAAAAAGCIwClbV4PpeYsqyAAenj2evg9ECQ3AAAAAABgiMApRu5fL7ukNIAA9a3z+i0+I7wSG4AAAAAAAAAAAAAANSIA0lHzdmKlozRThtztum/0ceyzTeBsSgAAAAAAA1IgDTkvIp9Pzat0Ebtkbk83r3ebetxgbEhkAAAAAAAAAAAAAAA0IwADIMAA2JDIAAAAAAABqRAAGQYABsSGQAAAAAAAAAAAAAAADUjMAAAA3NzIAAAAAAAABqaGoAAANzcyAAAAAAAAAAAAAAAAAYMGpqAZNjYyAAAAAAAAAAAampqAZNjYyAAAAAAAAAAAAAAAAAAAAAAAAAAAAAAAAAAAAAAAAAAAAAAAAAAAAAAAAAAAAAAAAAAAAAAAAAAAAAAAAAAAAAAAAAAAAAAAAAAAAAAAAAAAAAAAAAAAAAAAAAAAAAAAAAAAAAAAAAAAAAAAAAAAAAAAAAAAAAAAAAAAAAAAAAAAAAAAAAAAAAAAAAAAAAAAAAAAAAAAAAAAAAAAAAAAAAAAAAAAAAAAAAAAAAAAAAAAAAAAAAAAAAAAAAAAAAAAAAAAAAAAAAAAAAAAAAAAAAAD//EADEQAAEDAgMIAgICAQUBAAAAAAIBAwQAEBE0QAUSExQgMDEzMlAVISIkNSNBREWAkP/aAAgBAQABBQL/ANx41vVj0qSItI+ypaXGt6senFEpVRK4gfRqvVjd5AR2YbjezS2ciw2N9GNEq9WN3+Hx5e+mymNnR3GBTdH6BV7CLfa/o4wsQmnEdb0Kr2EvtXKMbNbcY+kceBqueCgltH0JaVHSSzyMswbBG29I46DaLPCgmNF0JaawUlhgFaY+gK8h7hB+yVBrcqMaitk6npPCcclcNuO+j49xbvu8JtVJwkGtyozitr2H5DccSloLfPN8uxIR5dUV5i4vilIlbtbvZkA25KFwjbgfLuFecuLgpSJWFbtJ+x65iIsVXeFDkMozBj/vaGqXzaVmRpErCsK/2u6yLyci1XItU1HBlXWGnqJhom22waHuFeb7xpEpErCk+F3WkdHkWq5FqmowNEQoYlGZMUjso20y2ymqXzaTmQpNUV5vvCkunx+lXzaTmQoaTqdd4Sc6NNSUdPQFeb7woaSyfG7rnCHnRpuUjh69fNpOZChpO044LQFJaBpp0Hg7hXm+8KGksnx6zMWxKS0DXNMqyy+2+mqXzaTmQoaTtbRdFVQkJuB8u4V5vvChpLJ8euc0Bx1ostH/AMhql82k5kKGk6nQM04EmuBJppt0FcbFwCiNkywwLA9wrzfeFDSWT43dEzHgSa4EmmmnQJwEcbOIBtck1wGI4satfNpOZChpNSV5vvChpLJ8fpV82k5kKGk6nHQaTnY1BIZdLQFeb7woaSyfG5uA0POxqCSw4WvXzaTmQoaTqUUKuGFIApYjEKUxQUJCTuFeb7woaSyfG6oi1wwpAFLEQgm+O6JCaatfNpOZChpO1LZQqTAmNn/ruleb7woaSyfHrn/t3/gw0QZWrXzaTmQoaTqd42GM6sZ1Ncxi/HM3lg4MRmOAPcK833hQ0lk+N3eJu4zqxnU1zO9Ijk6fIf1o8dWl1a+bScyFDSakrzfeFDSWT4/Sr5tJzIUNJ14pWOhK833hQ0lk+PRilY/QL5tJzIUNJ1OstvJyEWm4rLJaAr7UVUkoZUjh1xDriHTH7j3caB4eQi0ERhs9evm0nMhQ0namBiuLqx4Crh3CvtXMpSXj5brnmvFJz+jCxF7Vr5tJzIUNJ1OuE2nNO1zTtNOm4spp5x99p90YbJtD3CvtXMpSXj5a7pqA807XNO008bhSWnFd5N3lYrTgnq182k5kKGk1JX2rmUpLx8t9Kvm0nMhQ0mpK+1cylJePlvpV82nGoyheOkfcrmHK5hyh/YXda4qcmtNR1bPQFfauZSkvHy13W+IPJrTcZQPXr5tPzY0lw9fXLcdbaJ91WITpmPcK+1cylJePluuU6rTPNPfjorjnG1a+bT82NJcPXd14GE/IR6/IR6aktPrIRSjG24LEECRO4V9q5lKS8fLXddBkfyEevyEempTTxSWHHDRh78dEQif1a+bT82NJcPXpivtXMpSXj5b6VfNp+bGkuHr0xX2rmUpLx8t9Kvm0/NjSXD13dR1U3JlNDIQ9AV9q5lKS8fLXdRxR3JlNjJQ9evm0/NjSXD19ciQ4D0d7jsd0r7VzKUl4+W65DronzxcrGfN0tWvm0/NjSXD13IxCuOzXHZoXAOpJI1O2eipC7pX2rmUpLx8tciEE47NcdmhdbNZ7/DR/hJDhLvyNWvm0/NjSXD13NsHE5WPXKx6BptulRF75X2rmUpLx8tcwFxOVj1ysegZabXCsEpEw1i+bT82NJcPXpivtXMpSXj5b6VfNp+bGkuHru6TgpxZdNG+R6Ar7VzKUl4+Wu6piPFl025IU9evm0/NjSXD19bjoMjzocqxJ4y9wr7VzKUl4+W635HBVh8ZDesXzafmxpLh6+pxDId1eF/1Mf97Q7hX2rmUpLx8t1yv1O2b6dYvm0/NjSXD13dZF5OQarkGqajgytcBrhNstsp3CvtXMpSXj5a7rQujyDVcg1TUYGScZbeQAFsdYvm0/NjSXD16Yr7VzKUl4+W+lXzafmxpLh67uu8JOdSmpKOnoCvtXMpSXj5a7rnCHnUpuUjh69fNp+bGkuHr63Xm2E5pngsyG3+6V9q5lKS8fLdbroMgMpk2mZLT+sXzafmxpLh6+pzf3XyQAeZJmFH/yHcK+1cylJePluo9/deJBZeaMILP+S1a+bT82NJcPXd0DNOXkVy8imm3AV+MD68oCssRxY7pX2rmUpLx8td0SMeXkVy8immnQJ+OMhEihwmIoMFq182n5saS4evTFfauZSkvHy30q+bT82NJcPXdx1tlOdjU3JZdLQFfauZSkvHy13HAaHnY1BKYcLXr5tPzY0lw9d1RFrcCkEUsRCCb47omJp3CvtXMpSXj5a6oi1uBW4KXQxVBcA9Yvm0/NjSXD19ThqAugj7a5KKiBO7hX2rmUpLx8t1GW4Lz68AP47NjigT9Wvm0/NjSXD13d4uH96v71NcxjIYV2uQxYjxyaPuFfauZSkvHy1kp3ibv96v71NczvONNu0MARZjxSbd1Sr0T82NJcPXZF0ar0bVzKUl4+W+jVeh6Q2wkh7jvjSXZkgSXRdCq9Dr7bIzJCSXkpLxpYbl0+jlzEZQlJwkSkpOhiQoV5umjmTBjiZm6eFJSdEeUTKiSENk1xXlyOA1ipEiVhWHVFewXQreS+kdkzJw8OxDkcM/o5rvFkIlIlNxMUdb4ZtRUcb5IaciIANMq6qw0wVFAmj4jVk8d1fNtpPcSQlMRUdBNnpX49K3F4gbO/TsAhREVVHZ6YSIxMLFd4rFk17x8NlKSmMEdZc4qyvdG9CyHcVfcJIv7ZYadR6WqcaEVx0Blugq7xJUJRRk5LvFx4bUBN56bINoobxPN/xDac1p0npH8YOzi/1LDrF8WnrhEGktCqX7o3oRhpKkR0EQMgVZbipUP3WHQTFwiJSWht78iee61s757Q92zvXNzQTnhRx03ihZqyedWvi09MYg0loVS/cMhwB3l3nP2zeH7rDoJiYxEpLbPbwamOb8jZ3z2h7tneubmrQUxlWTzrnQ32h/VJaDUv3Nxmyb4Z77y7rF4Q/qw6Ak3hUdw0oUxVcGI/mtnezaAFxIAKLUz9yrbOD+Vh1q3mtcKQlJUV0W6kGjjjEjhpzLVPyOLfyrYcNuyeO6vm20mdx5KjKAvS5ION024rRhOZJHZ7aIqqq2jtcFiya0ryGUfawUCTsRGdEt3mhfaNsmXOxBj7xfSSIwvooE2XUxFx6E0cmMMgXGjZLqjQlcrwlk16p0EAmhwqWO6NbhUjTi0MNxabYba6ETQqnQQCYubOSiiPjXDOkZdKggPFTUNproRPoVTuImjVO4ifR4Vh2cNLhWHZw+mwrCsLYVhW7qcK3awvhW7/APDD/8QALxEAAQIEBgEDBAEFAQAAAAAAAQACAwQRMRAgMjNAUBIFEyEiQVFxFBUjMFKQQv/aAAgBAwEBPwH/AJl+SrzaLxXierOQHlgVQGLm9U7nsym/Uuyi3KZldfqXZRblMyuv1LsotymZXX6l2UW5TMrr9S7KLcpmV1+pdlFuUzK6/Uuyi3KZldfqXZRblMyuv1LsotymZXX6l2UW5TMrr9S7KLcpmV1+pdlFuUzK6/Uuyi3KZldfqXZRblSwBCaxv4QY38L22fhe2z8KZ+IrupdlFuVK2TUMZned1LsotypWyahjM7zupdlFuVK2TUMZned1LsotypWyahjM7zupiuIKMRy916956956ZpHKlbJqGMzvO6mNqRRxZpHKlbJqGMzvO6mNqRRxZpHKlbJqGMzvO6mNqRRxZpHKlbJqGMzvO6mNqRRxZpHKlbJqGMzvO6mNqRRxZpHKlbJqGMzvO6mNqRRxZpHKlbJqGMzvO6mNqRRxZpHKlbJqGMzvO6mNqRRxZpHKlbJqGMzvO6mNqRRxZpHKlbJqGMzvO6mNqRRxZpHKlbJqGMzvO6mNqRRxZpHKlbJqGMzvO6mNqRRxZpHKlbJqGMzvO6mNqRRxZpHKlbJqGMzvO6mNqRRxZpHKlbJqGMzvO6mNqRRxZpHKlbJqGMzvO6mNqRRxZpHKlbJqGMzvO6mNqRRxZpHKlbJqGMzvO6mNqRRxZpHKlbJqGMzvO6mNqRRxZpHKlbJqGMzvO6mNqRRxZpHKlbJqGMzvO6mNqRRxZpHKlbJqGMzvO6mNqRRxZpHKlbJqGMzvO6mNqRRxZpHKlbJqGMzvO6mNqRRxZpHKlbJqGMzvO6guAunu8iijjCjtIoeS1pdZQWFgTUMZqUf5F7fnp3v8UTVVRRyQY5b8Osr8aHDL0xgFkAghkmZRsX5F05paaHpHu8QiVVVzy0Wh8TxWN8jRMbQUCAQCAQyzsv5t8xcdJEdUo4Nl6j6lFZ4OoocuHtrVfxB+U+WDWk1UKEYhRlR9iiC00KhP82V4kuygqgFGmDCdSi/nH8L+oH/VBw8PIp/qPz9IUL1AONHiiJAFSneoGv0NUvMtjftTcL24nRE0CKKhEB9SocXzJopnWpfbCMeJW6MZ5FCVLbZAuoMOIIimSPcUo644Y+UwIKbY4xPgKHKwvAFwQb5vo1T/ANMMNCkpdkQFzlOQWwn/AEqrnySko0JsOhNCpf6pouZZeosqwO6KJpRRwlPuprcUvthCDDCjwA0eTU15YahGaeRhK7nDh6wmoIKcf4Qv2pCH5RPL8L1HS1enbZ/a9R1hSWwE+RhONVCgshCjVOj+weiiaUUcJT7qa3E2O9ooF5GtVE+YZySuvhw9YTUEFPvq/wAfwpKH4Qv2vUdLV6dtn9r1HWFJbAxnTSAeiIqE5HCU+6mtxMl2ObVe27y8VFNIZySjbnhhQzUJqrQVKFY0X9oCi9RH0henvb4lqn3hzwApMf2Bj6i/6Q3o4zaFHCXiNZWqjvD31Cgx/D4K/kQ/yo0fz+Bkhs8G04kq/wCKJqmA90MtYpOWfDf5PwiwxEb4lPkYrT8fKhSDyfr+EAAKDGZi+7EJ6NzfIUT20P8AhloX/s8Vji01CgxA8VCH+CdmPEe22/SxIYeE9haaHPBl6/LuPCimGaqDFbEFRnmZwM+ll0SSanpnNDhQp8r/AKowYg+y8XfhCG8/ZNlXm6hwGs5LXOaatUL1Cnw8Js1Bd917jPyjGhi7k+ehNt8qNORInxYf9F//xAAqEQABAgUEAgICAwEBAAAAAAABAAIDESAyQBAhMVAEEkFREzAUM5BCUv/aAAgBAgEBPwH/ADLkpZ01PqxQRnz6oZ564UnKNI6kUnKNI6kUnKNI6kUnKNI6kUnKNI6kUnKNI6kUnKNI6kUnKNI6kUnKNI6kUnKNI6kUnKNI6kUnKNI6kUnKNI6kUnKeplTKmVMplvUik5T0aGW9SKTlPRoZb1IpOU9GhlvUik5T0aGW9TDaCEIbV+Ji/CxfhYnXHKejQy3qYPCCGr7jlPRoZb1MHhBDV9xyno0Mt6mDwghq+45T0aGW9TB4QQ1fccp6NDLepg8IIavuOU9GhlvUweEENX3HKejQy3qYPCCGr7jlPRoZb1MHhBDV9xyno0Mt6mDwghq+45T0aGW9TB4QQ1fccp6NDLepg8IIavuOU9GhlvUweEENX3HKejQy3qYPCCGr7jlPRoZb1MHhBDV9xyno0Mt6mDwghq+45T0aGW9TB4QQ1fccp6NDLepg8IIavuOU9GhlvUweEENX3HKejQy3qYPCCGr7jlPRoZb1MHhBDV9xyno0Mt6mDwghq+45T0aGW9TB4QQ1fccp6NDLepg8IIavuOU9GhlvUweEENX3HKejQy3qA0lMb6hBDWLAcDMZM04zRoZEEpdOxnsg2SkghRGgB27eVxjEyRNbIklz0jW+xQH6fIhTHsMUmSJ/TDfLbpIbZBDR3kSOyhP92zUSOWOlJfyj9JnklzpSUSKIYQ8o/IQIcJhRWejpYjzo1kwvxL8SlvJCF9p0L60EL7T2eqY6Y6ICZQQUUEskFEh+gE141ij/ANhQgQ5cIQWAzAXk3glRojCxeMD6Ly28HEOkM7IvdNcBQtzNRHkbBQ3ew3XERRGklP2ZuoJ3l0UO5BDTyvheNYvI/sKMaIVAjkn1cnMDhIoeMwaeTZhniiGJuUU7SUFReVB4US5CK5FxPKh3dFDuQQ08v4XjWJ0BjjMr1EpJmzxR5VmGeEdYQ2mohm5QVF5UHhRLtYd3RDYpqGnl/C8axP8AIe10l+Rvr7KFvEFHlu4GIdbW6QeVFG6hDZRLtYI3n0cF0whp5ENz5SUBhY2RUaB77hfx4n0oMH03NER3u6eI8aNlPdRHgjbQGRmhFanRR8UMbIdG13qZpjpj9Pkxf+BikTThL9MNk9+lhxCwpjg4bVxvIls3Hc2ac2VbIc+ena4t3CZ5X/pCMw/K9m/aMRg+U7yWDhPjufkkTRhfSLHBSK9ShCcmwwP9F//EADsQAAECAwQGCQQBBAEFAAAAAAEAAgMREiAhQHETMTJBUXIQIjAzUGGBkZIEIzRioRRSc7FCQ3SAgpD/2gAIAQEABj8C/wDOqRI6KRFZPPG3lXmS22+/hkfTseYh7tQ2uPWdcUx0ITimR1pgibUr8ZG/qWuLj3clD0m1MJj3VTI4oAbvDGcyZEdqpGpB7dRxv/smPMR948F6xWw5S2c7VE5cChBfFbowmsGpows3GSua4q+bc7VDSAZzvTGHW0eCee5TN56dG7Vu7EQxDc8kT6qY4w3VPMgzeiQC0gyIOAqVTjM9NB2T/HYzechxUNwYXGLstCMWk3GmnzTm0FjmawcdLgO1AdEcx1G5fRuef+prX1H+Q4BrbIy7CISP+K+nk0GI4SZPcmiqomIC4r6n0x3pZFiTi4ZGS2onzW1E+aJaXGfEzQ0jA6SEMsFI3KljaRgBlZFilxPoVtRPmtqJ81U0v9XItcJgprXQwQ3UjDEMUncpQ20470x4ysjwn07GZa53KJruY3wVOjiN5m4QZWRYqpc7lC7mN8EG6KKJ7y3wP07UveZAIRC7qu1KqGZjADKyOwLnGQCbEc7qu1LTV9RHRunLXjvTtdE50gG1ZncvoZbnL6j/ACHADKyOwe5wmWtuX0Ci/wDcL6n0x3p2PUi6P0mvyz8Avyz8AjXG0npJFrt4kmQ5uFGyRrVLZmZmScAMrIsSZEoPGS/LPwC/LPwCm+PWOFKLDqcmMm4aPZI1owb5EznvmnEFznO1l2O9MeMrI8J9OxnEcG5rvmqlkQOOEGVkWKnupC75qpbEBPgfp2N4mthvsrmgdHWcG5qouAHFTaZjADKyLF4mthvsrmj26JuIA81VUKeKm0gjyx/p2ul0elcBKlfRNnU0vvUdo1CIZYAZWR2EDq1mexxTG8Y144L6lrbmgi7H+nY/ZDZ/stmD7lbMH3KOmDJfqhFhRKHU03hQmMfJ0MzBknTdU5xmTgBlZFj7VNX7LZg+5WzB9yvuiHT+qZEY+l7NVy0ek69VdUt6e976nvN+P9MeMrI8J9Oy14UZWRZ1+CenYyiNqAXdfyqmMkcI2R/4raK2j7rbd7rbd7qHlYpiCYXdfyg9kORHgfp2tcSJTCaNQO9fSw4jndd1/GSisJJDHyE8A3lsw8uwgw+tSZzDdZTBDe+RiUmesKPCmS1hEp4/07GbYZfkvxIi/EiI1QXQ80xzWtexu4neoUSlukhunTNPMSQc91UhgG8tmHlYm1hf5BfiRF+JEUnQHM8yoUaEA4w9xUrtJpK5KLFiAAxDqGP9Me3lsw8vCfTHt5bMPLwm7gta1rWtaafKxLSOZyr8mN8lVpoj/JxwjeWzDysU1uZ5tX5Mb5IO08V3kT4GcrLcuwJhMndeZ6l9MA+ToutyiNiGosfKeAby2YeXYdXbNzUyJV13ulNRoMR9dGo485WW5WJvOvyW0fiVtH4lEMJu8lEAEyWlfSuocdHtAa1Fe5pbW+YBwDeWzDysVP1LaPxK2j8SqWEzyTXsiU0g7ppopJLXzpleo8YsLQ+UqsecrLcsU3lsw8vCTlZblim8tmHl4ScrLcrH2nBp8wu+h/FfciNc3yGEby2YeVj7Tg0+YXfQ/ihpIrC3gG+BnKy3LsBChNaTTUak2JKU8C3lsw8uwZDhNBc7edQVdArro8lEZEADoZ3Y85WW5WOs4NzK71nyXes+S6r2uyKD33NMIiahzwLeWzDysTc4Aea71nyXes+Sk17SfIpsIOor1u4BQtDexkQTK+piNvaSJHHnKy3KxJ7Q7Ndyz4ruWfFdRjW5BXjBN5bMPKxJ7Q4ea7lnxXcs+KmyG1p8h03Y85WW5YpvLZh5eEnKy3Kx9qHWc5L8YfNSiQQwcap4RvLZh5WJw2VnhOS/GHzQD4Aa3jV4GcrLcuwqiOkF/UUmU5AJzSwsczWDgG8tmHl2DW0l7n6gFWBLdI+AHKy3K3Jj6DxlNSiGs8ZKH/kX1MvLAN5bMPLsPpjmn/5D4AcrLcrEnTu4Fa4nzWuJ80S0uv4no0VAo4KUNobgG8tmHlYpdP0K1xPmtcT5qppd6uUojQ5UsEh4AcrLcsU3lsw8vCTlZblYnQ93KJruI/wVOiiN5m4RvLZh5WKqXO5Qu4j/AAQbooonvLfAzlZbl2E3mU1pq+ojozq14BvLZh5dhU8yCMQP6rdfkjo3XjHnKy3K39sAnzTIsZk4oPVa07119p8Wor6n0wDeWzDyt9QAu80In1LRNpm0NO9R4sS58Ugy4I/4hjzlZblY6kXR+i/Ld8Qvy3fEI1xjE9E0uLhTqpKMJznuBM5k3pxBc4u1l2Aby2YeViTIlB4yX5bviF+W74hTfHLxwkgHEiRncnQ3Oe8O/uKLgXOcbpuOPOVluWKby2YeXhJystysTiOpXfNVLIgJwjeWzDysVPdSF3zVSyICT4GcrLcrF4mtkeyuaOibiAPNVVCniptcHZYBvLZh5WLxNbI9lc0dMw4ELqODsjjzlZblbmGF/kE17oZm28QzvTxq+9e3gvqGtEhddgG8tmHlbnSXeQWyWPeaRUvqWg6noBokDBGPOVluVj7NM/2WqD/K1Qf5R02jl+qY5j6XsMwU5hiddzqqpb0+I99T3+WAby2YeVj7VNX7LVB/laoP8r7ujp/VfcaHS4qLDn3h1y1LSRIlbqaRdjzlZblim8tmHl4RN5VYErIabjiZvdJVNEgBKy2G7qy8Hpbe9VOMzbpde3DyF7zqCqeZm3J17P8ASqBmD4JPfuVRvJ7HRnUdWFLz6IvcZk9jQ7ZP8eCHg27p6xkqUHVFbRRdUbldq4q596kdYQdhKBqZ0VVSW2fZbZ9lQ28zkuu/2U2Oq8lIa114kiuLTvQJ1i4+BOdwHSCU6WoL0TVtqRcnAbSBkRxVyc31wZdwRcd/Re4C9FrXb7lU7cL0551oNYZXTRq1gryUw0uG6SDX7ScziPAn2Hr0TVqmVWz2U2lbh0emDictgfregz+5PyQ5U/NOUrjmpvKb4E+w9eipGpVTvTsrHpg4nLYL/wC5Hg25PyQ5U/NO6W+BObxCl0vXog6+8Kmm9OysOd6YMjii07j0SG9co6HjyTXSukiSJTKd0vfwEvA6tz7+l1R1qbVS7Utr+FS3V0yQbhNKNT/99Ac8yAQZDM+PQHtV5pK+31ipnWekN36z4GWnXuRa4SI7HSu9MKWO3osfrHY6V2yNXn4LPU4b1S4SNuqJq4Ye+5w1FUvFuuJc3/akNXg0nCa6jvQrYK2T7K5h9l1pNXE8TiaXCYU4TpeRXdk5LYd7K6G72XWkzNT2ncT/APRf/8QALBAAAQMCBQMEAwEBAQEAAAAAAQAQESExIEFRYaFAcfAwULHxgZHB4dGAkP/aAAgBAQABPyH/ANxxUFFSDgBARNgTdWUqDSB6aCgooEHATAACbSUFkQblfSFeo9igRJOEa3FRlrE2yhGnCLVsjHRCapQ2Jwq6OBEk4RG6uwhnkZRGyARO8m+aMxBkwgbCCB7DFT0IHCr4ohPUiH9FJ8AyJ6KD0CgvZ7f6gZBGSAQgIEewEwFdwVMbZozUIjEiSwTyYhOSZ0CjOS6eQslMDoiZLwppL/iIrEnZRXEioc8mojDJChgggkew2PWxU6Aq85JmzE5IIJJ5snoOKwz5oQe6UIs3qJgfVtcJiqchqUQSB0All4KHFRvMbiDuVqFUYTOzbEd8K6t3OUWVxwgSZAOo9CejcTgROqIuJBCWdVUQWPq2Rz5EBL+Gjlm5cLYR2CQUEiyDCu6hF0DA66pRggVGf8ddXOxC0ECfA+SERAGVPuy+7I7GCK6bKhKL3WtChe0R6tz+HuheAnFcWCg4iZtFfdl92UrIxFYhQQFBGqEiGBOSCUnkoXggbxn11e7GCgFCyHZ8ukufw93QFC4biw9mr3ZhBsOz5IY5MYhtaCKaZgHQ3P4e+EcFxYIMqoiJC1gR2Jj2OvdmEGw7PlhzIOKin3MX/Cu60dvVufw98I4LiwwgLhSSVFl0dT+ECABChO6LmgIgjrq92YQbDs+WGpYMP0FJCaB709YVz+HvhHBcWGGfqxObKz8fgK0yThfHrq92YQbDs+SFQYgakBJ6KDscCKAjBAWpMIus8IlUInLUBkk+rc/h74RwXFgpSprJPRRJXFcAUq8EGFYnUqhCSTkTP5EWuoqSeur3ZhBsOz5dJc/h74RwXFh7NXuzCDYdnyQcCEwCn2KzwrAPQ3P4e+EcFxYKMKSJK+xQSf7AH2OvdmEGw7PkhUD7gvrCJya1AYeCONpQtxIjRRemzBn1bn8PfCOC4sEFgQbhfWETkM6hm6GihfLhRboaKevr3ZhBsOz5Yb0EwmI7oDWUQPeyAWgcGnq3P4e+EcFxYYQAN1/WqGdSH4yGsIEFhfr692YQbDs+SMBkyrM2cQQyiMKTKDEqFQEK5G9oJR6qONFfVufw98I4LiwUNMpaohxBCKmQzGZQBRpkZAypfAR+CF4miAgdfXuzCDYdny6S5/D3wjguLD2avdmEGw7PkiQLlbD9qBsR0Nz+HvhHBcWCJAuth+1A5j2OvdmEGw7PkguYJFVtf2Ud8cTJ6G55QBsO5X+1YYNjBkomSby4sFet5hbX9kPBZGT7HXuzCDYdnywwhhWSAShBAp1wWRT+plSY9W5/A3Lww+LDDeSUi+wpoLcmlosz5VMT19e7MINh2fJCJOTbKvtAvtAhkGAuYqhqzmmBQBhSFo/lAmIyJMerc/gbl4YfFgpPeYzV9oF9oFDZxMohHQkZNEgrnp07ShumGaYjr692YQbDs+XSXP4G5eGHxYezV7swg2HZ8ukufwNy8MPiw9miUFkQP+V9ah9MLzgIiQuRfJGCEIzJxLOkSmipHQ3P4G5eGHxYIkaomSCziIi6sH2O4xwNwb5YQ9IkSw/XNTXuBFJUmEqcT6tz+BuXhh8WGEiNZYt1+BLilSjagRRg16+4xwNwb5IdOAKBBF1FDEhCTJBHHAAAzoqh5BCo/Cm5FeI9W5/A3Lww+LBSmIlFBLqKS3oTUwgpiiA5yDOyBwCUeh0IQadfcY4G4N8ukufwNy8MPiw9muMcDcG+XSXP4G5eGHxYezXGOBuDfJDdeVMzdlkctCehufwNy8MPiwUDkt5BDdLGYoB9juMcDcG+WGesRJRCveDUetc/gbl4YfFhhlVrdoKcBk0Ju1Qg9Acp6+4xwNwb5IVI45wL68vryPkGBoFHogDdVBYINTz61z+BuXhh8WC3QkUL68vry2A0EotSVNKDsg/ZKD+cOL9fcY4G4N8kABwsAlfRl9GRck4bmBWUPcevc/gbl4YfFgs2wQEr6MvoyyTJIAiBuAVQiBGiAEAANuvuMcDcG+XSXP4G5eGHxYezXGOBuDfJC5BJUGkvr6owmzoa5/A3Lww+LBQ1S3I+vrMxIBMex3GOBuDfLDHRvIVqVqJMoUeV6qufwNy8MPiwwjFHULTFVSuA+wXGOBuDfLBdCEBSQQMlCfwszT+ijBBSIrHb1bn8DcvDD4sMJAkYE1/hXeR9gLjHA3Bvkhc4gptL7YvtiOyEIrlXUFyaaIxBDeM/VufwNy8MPiwUjgEzYX2xfbFLRMRUKERQWnJB4o7AewXGOBuDfLpLn8DcvDD4sPZrjHA3BvkhjKSYiYzIAopmAdDc/gbl4YfFggyqyIkLMAHamPY7jHA3BvlhGa8gCJJQIcEKExnpCBlLlEQR6tz+BuXhh8WGG7uR3W8MIhCISXARB6+4xwNwb5YCG7tjgIfgsDBkkMzEQIsJyXC+Pq3P4G5eGHxYYDAzlAHAVai5DORBIkUd1l4bbr7jHA3Bvkh8GIGpAGXKKPwwigIiERS1lAjdwAYHZFrmSkn1bn8DcvDD4sFLRNZJyiqJKuEKlapOKrNJOrHZBChcDGnX3GOBuDfLpLn8DcvDD4sPZrjHA3BvkhgECYBLZQi8wOhufwNy8MPiwUIUsSWwBteA9juMcDcG+Ssp3BrFZAOwbdPRQgePvlFFkalPq3P4G5eGHxYIDAA3awKkA6gOTBC5BspmjXqdfcY4G4N8sEilO6jWJCRAluqL2Y/HQZw6Qtb1bn8DcvDD4sMByieO6VTxDTQRuoZRF8pCF2MCBmadfcY4G4NxZU8K1a7fhT/pSf8ASlqUKV/1H6pSEhXNS/8AAqAuyRAU9W5/A3Lww/YF3c1RCn/Sk/6UyOlqmUFACWJHTchYyCJhIEEIHV5AwcY4G4N4EDPRQUGDwNy8MPgwgZ9giwQEjQZlAIaERBcDUD4AVzwQHoYBgiWD5QYbcGbwYethgE2KBmzlB68mArvTWTLRFBRsyyLA5UF/ggQAIMgueXQEycCiB0ebhBAYHGJtL+EDZIFzy64snAe86BuiWLIklgIEAQwVt+AXBg+ueT3ILBqVIyVUEAQCCGCsVf8AbAKjrTUuUYHLf1o5MASUWWZoEOMZpKNEEof4SBY0JsovQF0LIU2qPaRFrlY9+hqnFmv+yBTMVUWRKgXJiAaBuppRHQEU0zMKoLFJGAECNYyCAjOUSYD5b1hs+8YVWZKBGXIAmv4QYSxB1Q8CHm+UCQlfRGppBujl8SPwiMEFxRB6AAVS/GfN0Aj1glFvgpKBQghK5QNF0wARkFkzlqsrgfKqXMhRCrhTqoqoBHkhS/UakKZ7NI/KhyUn6e7rLj95QOWAgEPwXwl875RaCJNTVR4gC6UHCoYO4AiSTJMko4jqb3eqbF5jueCmhtUUKXLgLiF527D8L4UjU8wqq4mgyCON+Rx19cfsKDy4F/JfGQkUQ2WbKplfnjwDJnQ3u9U2Lw3c8FJFyp2Cig0C4heduw/B+H7Dk8dfGz71wQEpXFGhfw/q+MpVT1EDV1UWQPwGCLX0Pm6AZWwQiXMYFhR3igItmskkSblENQUIBI0pCNaspRiDt8PNlYH5e7rQgvOgMp3zesaoiiltIhU6JykZKnPyKJAQOubgEACSVsWK93H1gQ44wazN90bZquxGaIa9QOVUFoEIjEskxACMzSSSXmK/9rjTrQzejlcWhVfZQR6KGh2/1wJPrjSXtjWHQoEUciHoQw9HqcV641REF4w0X/SmixhoDjJrwDn0BEF4fwCqPehyOM0AnLGaAAAAAoAMnHPr5MET4LMUXgnaqhWurTKRvUquAYMk6GQYIkzZFGeE7q87ipEdwfkr4PyVoA3IyCH6gfjBIfYZKjFJUnDJ0cmKSpOuGRAR7EQKJD0Rr6UgUSHojX7MRKmpaKDopaKaGpAR1BEqSlooOig6KaGpAAf/AAv/AP/aAAwDAQACAAMAAAAQAAAAAAAAAAAAAAAAAAAAAAAAAAAAAAAAAAAAAAAAAAAAAAAAAAAAAAAAAAAAAAAAAAAAAAAAAAAAAAAAAAAAAAAAAAAAAAAAAAAAAAAAAAAAAAAAAAAAAAAAAAAAAAAAAAAAAAAAAAAAAAAAAAAAAAAAAAAAAAAAAAAAAAAAAAAAAAAAAAAAAAAAAAAAAAAAAAAAAAAAAAAAAAAAAAAAAAAAAAAAAAAAAAAAAAAAAAAAAAAAAgkAAkAAAAAAAAAAEkgAAkgAAAAAAAAAAAAAAAAAkkEEAgAAAAAAAAAkkkgAgAAAAAAAAAAAAAAAAkkkkEkEAAAAAAAAAkkkkkAAAAAAAAAAAAAAAAAkk6MkAAgAAAAAAAEElqEkAgAAAAAAAAAAAAAAAAkEkskAAAkAAAAAAkmuNkAAAAAAAAAAAAAAAAAAEmCrckAAggAAAAAEktbjkAAAkAAAAAAAAAAAAAEkr8ukgkkgAAAAAAEijIEgkgggAAAAAAAAAAAAAkl6LUkAAAAAAAAAAkUE8kAAAAAAAAAAAAAAAAAEkvTykgkAAAAAAAAEigGEgkAAAAAAAAAAAAAAAAkl6+UkAAkgAAAAAAkUFwkAAAgAAAAAAAAAAAAAEkvXykgAAEAAAAAAEiguEgAAgEAAAAAAAAAAAAAkl6+UkEkAgAAAAAAkUFwkEkEkgAAAAAAAAAAAAEkvXykgAAAAAAAAAEiguEgAAAAAAAAAAAAAAAAAkl6+UkAgAAAAAAAAkUFwkAEAAAAAAAAAAAAAAAEkvXykgEEAAAAAAAEiguEgkgEAAAAAAAAAAAAAAkl6+UkAAEAAAAAAAkUFwkAAAgAAAAAAAAAAAAAEkvXykgkkAAAAAAAEiguEgkgEgAAAAAAAAAAAAAkl6+UkAAAAAAAAAAkUFwkAAAAAAAAAAAAAAAAAEkvXykggAAAAAAAAEiguEgkAAAAAAAAAAAAAAAAkl6+UkggAAAAAAAAkU+HkAAAAAAAAAAAAAAAAAEkvXykgAAEAAAAAAEgmVUgAAgAAAAAAAAAAAAAAkl6+UkEkEAAAAAAAkEyqkEkEkAAAAAAAAAAAAAEkvXykgAAAAAAAAAEgmVUgAAAAAAAAAAAAAAAAAkl6+UkAAAAAAAAAAkEyqkAAAAAAAAAAAAAAAAAEkzitkgkAAAAAAAAEgmVUgkAAAAAAAAAAAAAAAAkgbi0kAAAgAAAAAAkEyqkAAAkAAAAAAAAAAAAAEkDcWkgkkgAAAAAAEgmVUgkgEgAAAAAAAAAAAAAkgbi0kAAAAAAAAAAkEyqkAAAAAAAAAAAAAAAAAEkDcWkgAAAAAAAAAEgmVUgAAAAAAAAAAAAAAAAAkgbi0kEgAAAAAAAAkEyqkEgAAAAAAAAAAAAAAAEkDcWkgAAAAAAAAAEgmVUgAAgAAAAAAAAAAAAAAkgbi0kgEgAAAAAAAkEyqkAAkgAAAAAAAAAAAAAEkDcWkkkEgAAAAAAEgmVUgkgEAAAAAAAAAAAAAAkgbi0kAAAAAAAAAAkEyqkAAAAAAAAAAAAAAAAAEkDcWkgkAAAAAAAAEgmVUgkAAAAAAAAAAAAAAAAkgbi0kAAEAAAAAAAkEyqkAAEgAAAAAAAAAAAAAEkDcWkgAgAAAAAAAEgmVUgAAEAAAAAAAAAAAAAAkgbi0kEkkAAAAAAAkEyqkEkEAAAAAAAAAAAAAAEkDcWkgAAAAAAAAAEgmVUgAAAAAAAAAAAAAAAAAkgbi0kEgAAAAAAAAkEyqkEgAAAAAAAAAAAAAAAEkDcWkgAAgAAAAAAEgmVUgAAkAAAAAAAAAAAAAAkgbi0kAEAgAAAAAAkEyqkAAAAAAAAAAAAAAAAAEkDcWkgkgkAAAAAAEgmVUgkgggAAAAAAAAAAAAAkgbi0kAAAAAAAAAAkEyqkAAAAAAAAAAAAAAAAAEkDcWkkAAAAAAAAAEgmVUgAAAAAAAAAAAAAAAAAkgbi0kAAEgAAAAAAkEyqkEAAkAAAAAAAAAAAAAEkDcWkgAgkAAAAAAEgmVUgAAEAAAAAAAAAAAAAAkgbi0kgEgAAAAAAAkEyqkEAEAAAAAAAAAAAAAAEkDcWkkAAAAAAAAEkgmVUkAAAAAAAAAAAAAAAAkkQbiskEAAAAAAAAkiUyrEkgAAAAAAAAAAAAAAgktJcSfkAAAAAAAEElDnVqckAAAAAAAAAAAAAAEk6OAiS8ggAAAAAAEgIfytokkAAAAAAAAAAAAAAEFVzp70cgAAAAAAEk8HkTRykgAAAAAAAAAAAAAEhO3u/wBkgAAAAAEk3kiS7WsgAAAAAAAAAAAAAEk+vOltVUgAAAAAAEjfzdarSkgAAAAAAAAAAAAAknp93hSUkAAAAAAAkrBZ7VtskAAAAAAAAAAAAAAkmEzUCSkkAAAAAAkhraG/9ukAAAAAAAAAAAAAAEktCHqSKkAAAAAAAEnnFTAsMkAAAAAAAAAAAAAAknM6SSQkEAAAAAAAkqotttsggAAAAAAAAAAAAAEEgHSSfkkAAAAAAAkkhFttSkAAAAAAAAAAAAAAAAkgP3GkkAAAAAAAAkkogfckEAAAAAAAAAAAAAAAEkkgEkggAAAAAAAAEkkAkkEAAAAAAAAAAAAAAAAEkkkkkgAAAAAAAAAgkkkkkAAAAAAAAAAAAAAAAAEAggEAAAAAAAAAAAAEEAAAAAAAAAAAAAAAAAAAAAAAAAAAAAAAAAAAAAAAAAAAAAAAAAAAAAAAAAAAAAAAAAAAAAAAAAAAAAAAAAAAAAAAAAAAAAAAAAAAAAAAAAAAAAAAAAAAAAAAAAAAAAAAAAAAAAAAAAAAAAAAAAAAAAAAAAAAAAAAAAAAAAAAAAAAAAAAAAAAAAAAAAAAAAAAAAAAAAAAAAAAAAAAAAAAAAAAAAAAAAAAAAAAAAAAAAAAAAAAAAAAAAAAAAAAAAAAAAAAAAAAAAAAAAAAAAAAAAAAAH//EACsRAAEDAgQGAgMBAQEAAAAAAAEAETEQoSFAUHEgQVFhkbHB0YHh8JAw8f/aAAgBAwEBPxD/ADKJATEBOdBGE9EGlkwRKdOuWc24ZACZMnw40osUU6dOgXGaBAIBMmQsQ0mSPBBmoIIVn0mSPBBmoIIVn0mSPBBmoIIVn0mSPBBmoIIVn0mSPBBmoIIVn0mSPBBmoIIVn0mSPBBmoIIVn0mSPBBmoIIVn0mSPBBmoIIVn0mSPBBmoIIVn0mSPBBmoIIVn0mSPBBmoIIVn0mSPBBmoIIVn0mSPBBmilxzXQPC6N4Q6HwF2PgIAEOukyR4IM1LvVFLzSZI8EGal3qil5pMkeCDNS71RS80mSPBBmpd6opeaSyQurR6yPUXcREkPQZqXeqKXmmAaWwzUu9UUvNMA0thmpd6opeaYBpbDNS71RS80wDS2Gal3qil5pgGlsM1LvVFLzTANLYZqXeqKXmmAaWwzUu9UUvNMA0thmpd6opeaYBpbDNS71RS80wDS2Gal3qil5pgGlsM1LvVFLzTANLYZqXeqKXmmAaWwzUu9UUvNMA0thmpd6opeaYBpbDNS71RS80wDS2Gal3qil5pgGlsM1LvVFLzTANLYZqXeqKXmmAaWwzUu9UUvNMA0thmpd6opeaYBpbDNS71RS80wDS2Gal3qil5pgGlsM1LvVFLzTANLYZqXeqKXmkCXQTgqGg5hEZkswJsGqKF4UOLc/2iGwOjDBhKOTlFCoNSs3ogQDjLHOyCsFEWpFQBw/ff7RONiNEA4jkuUUKEolHg6JGMqcYIIuAABDgA0/INE/EoliSwR3CZCal0AnJd0h5LBMQYAc0WGx0d4BCYOfKYyk0mTdggPl8odF5QQYYZ0wzD7oE3Dkjo2ARZYgHX+wQUhmDknMCDiNCeCjRIJJhj6QGjAL1r2vaAIIbYAon/AJDYIIJBDSjMHRe5yYOAQQAAhTwIcByReNGc4lAbmc4IjHn9BBpfFmQwIEOoCWsD9JhjmPzRgQ5vH/q7AlvOhExo0SJXw/K9C9r2izEOV56BPRYpiBgiSS5RMztkxfcQIUCdQJwfdk8HAXKvCv5OwVr8r2fZTMONkwVk5+H2NCBzrFfD8r0BCZsAuZ4rwHADv7ZM2J3pFAm8YC5TCTOL6srwr+TsFa/K932a7xb3oTwEDGgr4/legIdecQgXAxQNpwYX4cmTEFBARQQNAELM839ZAAAIz/dDGHF3sjUuwxRg739mrHVl/Gh4oOdJWOssuRFk25aw39Cu1/dQCSwTTlLrshEgkOTh+EUCZhhQvjKYgs7ftCxwroaBgKQmlgYDbQxOEYwKP/DF8P3lQtQDQjjGcmKew/ei90JrHGUgPDogGwGWb6OYTpUOIOSPYP2iIjk6Mzl1zT8qd+SIubwoQvC6QWJSepzL6mKKGK7j6UaI3wQJA+Qos8hT0l2/aCs2B9/6L//EACkRAAEEAgIBBAICAwEAAAAAAAEAEBExQFAgIaFBUWGxkcFxgTCQ0eH/2gAIAQIBAT8Q/wBZQBKmiQz0NWElAKFC9YZZMIlpQ1SvCEejnhWprxsc9TU1Q4WOWPCmpqhwscseFNTVDhY5Y8KamqHCxyx4U1NUOFjljwpqaocLHLHhTU1Q4WOWPCmpqhwscseFNTVDhY5Y8KamqHCxyx4U1NUOFjljwpqaocLHLHhTU1Q4WOURBR9xH3F8y+ZFIamqHCxyrsL1amqHCxyrsL1amqHCxyrsL1amqHCxyrsL1amclF+iHtIewvgQgAHucq7C9WsYN5xyrsL1axg3nHKuwvVrGDeccq7C9WsYN5xyrsL1axg3nHKuwvVrGDeccq7C9WsYN5xyrsL1axg3nHKuwvVrGDeccq7C9WsYN5xyrsL1axg3nHKuwvVrGDeccq7C9WsYN5xyrsL1axg3nHKuwvVrGDeccq7C9WsYN5xyrsL1axg3nHKuwvVrGDeccq7C9WsYN5xyrsL1axg3nHKuwvVrGDeccq7C9WsYN5xyrsL1axg3nHKuwvVrGDeccq7C9WoMwEaAvBjTuGSQFqUwvFF1pylJpCCAggMDhavsiCUHGGhCZKJRR4E6mkCAkaTqEMCAgEAgEAhw94heLAlSGSiUSiUeMyVHSdz7oF0BJQ4BlEkiEUjRfGQodlNDfsgjPShvsBUj6cSQwiUCaVD3UfdEjAunsigSUoAkwEGOyJ/DR3EBCgRQDvr7RZjsr719T6RAFBbsBBFR/wC9olAIM0gO/uvocMmAilFAHcqcAKJ7CuySMhBEICZqBIUgiygLRAkGggF+/wDS+9fS+kGkGAvwcKizKLSZKAAEBDM/nDuRRb+gUfzKxVf8KxXoARaMyh9dEUA8F+39L70Zi7K9D6X5rgUR+cO5hRUPyL+sViq/4VivcZHRHAUUhgX7f0vvRjEdFEHZ0gP8zh2f24ZQwYRUSYCMfwImUXZGgUYESjk37GjdJ7MC6RqV6lZUz112x9gp/ruSAJKlcT3SijCaQph4iIHfSAHqRJJkvFjRmgIEwQ/wdP5f+YoAgopQUf8ABMnWl+AKVFzAE/fuiZxgCiHB5k7UQAAgaYtLC9EPwqtAb0flWAfle+F1VD2yQBBXrkvRF8SBaCIvpdvZ/wBi/wD/xAAsEAEAAQMBBwMFAQEBAQAAAAABEQAhMRAgQVFhcaHwQIGRMFCxwdHx4YCQ/9oACAEBAAE/EP8A3Fikd89K5DQ/EowEdjBgcB6ClAqgGVoQlMDSvCJ9MnvnpXIaH4lYRHYbD2ABelXvJEkFeVfuhAII3E3/AGIbS7Sl3YxTlrjjQiSY0ccuGiy2FrMTSAoatwJR+CadHB2AEpdgiT4o5EPKFktkz6MbctZV2WsuKEEjpHxlgrFiFpmM86tgHsaE84irY3mhKdKk2jzZgI+wwIZ+gj5NDJJUHCm4Qj3UMsRALKDjQrRYMMc/RRYMtZ215W8oRJMUgxIMYrzPCkYjyQU3WqLG4j7BILupVK79Z6o4F10KshHFg/dA0/AIH3LV+9ZyW7Gljdo0wf6nvUNgECqB7F5C1JTAmygZ9CsCu6kRdYMxwZXob6BEzix+1F3Rh/MP3QgIISIyOt+XtoMLJAxAPAeNYwgEKG77CrDjqLkXI4/8qFuMqo4xUSiYLF73h0pIYdFC7QsFSAwGN7VzCwAub7wf9KXxOJhbvquI8dS83PGMFO2Tl3cjgUcYoKYpOCoJ3uJypIUdFA8NpkFUjkNwfFFRowpWFlxaaCkWGEe1SqiEaScMnq8PTVhOUHNX+FWi1cmuVUCJZLjTySOpjZMTGMkEz793KkosXuABL5imIpgkw/Vy1ThuI81j9VYLVyK5dRd1PgwnrreemypH8BbNzuqSMuJCCZOAtRAAGyLM+2KY8gMGT1bF018JzqcNijAcuphUboRdTG9NaaZg0AZ7DV/JlkJ7lQs7twdEYo4KM8V4vH6uDpr5nNUwbABgdfbVY8aSTHM6600t2tQgTyelGUSXgO6rkDlQbWPgqyoI7La/WxSB7m4q5rf1eLpr5TnWJVrSKPZ6mHpMHTXzOasSjIaRsJ7b7Hi6a+U51iVgULUV2LUwo/vmAWynCv8Ab/2pViUvb3TOfQ4Omvmc1YlYlC1GwvbVB/Q3vb44V/t/7SsmV0cE3Ztj7Bi6a+U51iVgVhp2LUw2QLQ5RYvG6hPwoGs8RCajBlJhFG5G59XB018zmrErErDZXttl+SkN1RgIKmykkAmpqJkiJwREzyq6EwRSMSPq8XTXynOsSsCsNOxamGzB81Ib4ljgy/FQPkbeBcVYZYLX1cHTXzOasSsSsNle22RLpQiccnlVxOKPwjG7fQAyx6tYumvlOdYlYFYadi1MKn/EhRGIdbrog9JUcZKuiEAQEizQ6CwKKb5iO1L4mljZV+rg6a+ZzViViVhsr21WTGYlvCHW65rN4tN4yU3oa7hh4VPpWvISMxyN1DeztLmRn2pWKDbVgmPV4umvlOdYlYFYadi1MPSYOmvmc1YlYlYbK9t9jxdNfKc6xKwKw07FqYVNccEC8NGW7Y3Zg9Dg6a+ZzViViVhsr21WgalwS7tGSi5yzBP2DF018pzrErArDTsWphQAGMgTHzXjX6rdOiGOiQghHL5q1hBhl2L0QwIMH3Pq4Omvmc1YlYlYbK9tV7yTBJ3rxr9UNM8AE0vGqIo+WuQ6bdvGcVfNURR8nrMXTXynOsSsCsNOxamGzIBFciMzFMnKjTgAWeIPCUpQ0AOBwPj6uDpr5nNWJWJWGyvbbIVEmOwISq2I58ai9wL2Ln38fekaokiQlBu9Zi6a+U51iVgVhp2LUwrdGdAWbo315Z+q8s/VccHJZ5zuoQdV1ln2b0uQeMhlknE/ih0z0gluD6uDpr5nNWJWJWGyvbUpsOWY4mLzivBP1Xgn6p6S5C3gZ3ZppxkFBCJXgMHwovwo3RMAe/rMXTXynOsSsCsNOxamHpMHTXzOasSsSsNle2+x4umvlOdYlYFYadi1MKwAdWv8hQqFPJ9Dg6a+ZzViViVhsr21ASgObX+QoVAzwH7Bi6a+U51iVgVhp2LUwotcAKIcbmvJf3VytIWs5y+hwdNSsPjCg8QXvoJb51f9Fr/W09YFUlde2qMGJIpc6da8l/dTouhaJIcvB+wYumvlOdYlYFYadi1MNk53ud+MZ3RU/tkHJWLnD+KAhHmAbp+rg6bLjDV2nXttmQx8UQhA96ObScVxMz2pBo4HRDJL0PWYumvlOdYlYFYadi1MKi94WBEZZrw/914f+6nTCGBcCKWyLOy3TfBFQRQy0nB7CoAwBBd07/q4Omy4w1dp17arfJSghxvXh/7rw/8AdMR1ShPC1YvBK5FmmADL71QPNZa4cvv6zF018pzrErArDTsWph6TB02XGGrtOvbfY8XTXynOsSsCsNOxamHpMHTZcYau069t9jxdNYbJPgeNGED40Msfj/KPu+XKuT8uVO7KK841MKb95lWYbYr/AA38qEAlDXd8Rn0ODpsuMNXade2qZmh8GTwr/Dfyg6E7aURcj7Bi6a+T51gVjr8fw1MNmLdMUAZl1fFWyQ7AglDG+gyjcCJvQ+rg6bLjDV2nXttkZoLinv8AYl9qtQ3l2iUxEYKlJJ6UAsIesxdNfJ86wKx1+P4amFTmuFxidxXh36rw79VGHYWX3CigBNKlWKN7Z5Qg/SggoxgrEm76uDpsuMNXade2qw20lUvIOVeHfqvDv1TMDUQoOac6BStdSIUvmLUTexsmpI3ys+9AX+kWCLHrMXTXyfOsCsdfj+Gph6TB02XGGrtOvbfY8XTXyfOsCsdfj+Gph6TB02XGGrtOvbfY8XTXyfOsCsdfj+GphRWOlEUjFf7v+1cyi/m3Xn0ODpsuMNXade2qzST10Ir/AHv9oejmYS1oZ4x9gxdNfJ86wKx1+P4amGys+tVhNiN9qmAsQsgijHx9bB02XGGrtOvbbKI5lbAm8caxk/m/ailukbYmYSb7vWYumvk+dYFY6/H8NTCh7ggEV968r/deV/ugjhKOh7NT/wCUGGdnW580yNghIstO31sHTZcYau069tV+zRHE8Ja8r/deV/urVumcRxgaKUmGFgiUjezRn/41NpuDmfNNDBjLRJR8nrMXTXyfOsCsdfj+GphT4WkMDxvXkn6ryT9UZVYDSe1BAWMgDQQQfWwdNlxhq7Tr21XJbZxPGGvJP1Xkn6qWMl3I4SVuNOJNXt8zCzQcqwCD1mLpr5PnWBWOvx/DUw9Jg6bLjDV2nXtvseLpr5PnWBWOvx/DUwp7GgNBGZc14d+quxUxFO4gPQ4Omy4w1dp17arPJEERvZa8O/VLxkzrZa0Xv9gxdNfJ86wKx1+P4amGze1cDvMTBxbVBAOBDYD8TSWGDRQcIn1cHTZcYau069tstrImCxllxmiEbeEWT1uLpr5PnWBWOvx/DUw2IyYTI2cIaujsFCvHAWtWGYFXgVGkjZJPqsHTZcYau069tsgahJMGFKQXRHiW9bi6a+T51gVjr8fw1MKjMwSuYjJXiP7rxH91NEghY5TSARJGzQgLtPMT+afOc7xc1v8AVwdNlxhq7Tr21WGqkzk5nWvEf3XiP7p64qJMPJ6U3MpG85JcrEL1wHrcXTXyfOsCsdfj+Gph6TB02XGGrtOvbfY8XTXyfOsCsdfj+GphW6eEJbKcK8j/AGpBOW5/dM59Dg6bLjDV2nXtqgc4b298cK8j/aRhywuCbs/YMXTXyfOsCsdfj+Gphsxm0CSeAF6PUzJUnyJ5UhloFZGJH6uDpsuMNXade22WB4wYVTgAutAKLKZLgjenqFFchwwmPWYumvk+dYFY6/H8NTDYn8HXcW+4NCZ0QWAGJsEyWpoRnUZWVYB9VYOmy4w1dp17bYB1ImUveUHdUB/wZuBiWgpYChjHVegBBBuuvrGLpr5PnWBWOvx/DUwqY5SHUYh166jikl1xtTo6ZRFi8xyo1/rEURKLY7tLkMbbsE/VwdNlxhq7Tr21W/uYzjhDr103n+R8eMlD3pmUQzMNDGWZ+GJbr39qD3tRg4Fi1j49Zi6a+T51gVjr8fw1MPSYOmy4w1dp17b7Hi6a+T51gVjr8fw1MK4pywvCv9p/lXXUlswehwdNlxhq7Tr21WPo3OXdX+0/yp/JSmWCfwfYMXTXyfOsCsdfj+GphRQHFwJr/LVzBsI6MArJB8tSeITE29cUpPWEYn2+rg6bLjDV2nXtq3oQgSV/nqJl2AiazPZD0hmXdRaGcQodY9Zi6a+T51gVjr8fw1MNi2RBCPVdKZNZjK0Bk/2rnIINj9pbtRvCQYDwHv8AVwdNlxhq7Tr22xBeCCG5FpSmGyXMnNq2CWr9YpS5gz7lHDC+CS55+sc+zXyfOsCsdfj+GqkRSMp30CzdxaiipQDeTZ58FA4YkNJcT2pTXHeAbmWM/NG2dZUCAD6qs6bLjDV2nVDFwpG04MxxsXnGooqThSRN8DNozTvUkCYaz7AQkGYJuDQ1xauMZ4tvVx8Te7Hk+dYFY6/H8NUfLhQCT0XPH4rOy4w1dp1dyfFAZPsECDLsS0jhv0Cm0MBJbb6wKx1qBFsrQIzWdehOaz6C1GXYd7ohyuAZage4Tvcsxuzow1SyCtdzdQAUI4TVZt2+hEk9cCLupVK79W0T23Dxf5S1zulcioNnUElhbv8AzRlgSJhNZyW7H11AV3UiLrYcLLjm8vzW/Sk4HANxpRVhsHCQwq7zfxQKhSG813/29dg9zqGou3v/AIM0yuUGV2Gotk4XRe/B0dYBN1DJP1og4tb44LnNgpN0kn8HLYlGycsdCvudHUYRN1KBN/rXK6LAvCpljJ7p3vn8GgCcjABdoM1sFMdalzMJJxpzTOwEEKV/x6k6EARemrGbFj/tICcwCO2KNFvnJqacz2WdVPR9ZyaYrEBwhhefix86MwpOBLEV/AH9p38n9q6ooBeDFQqVLzo92rbIliLpxp/4QMrTFw2kDwlzTyKIMiHgm5pp49yTD7kauY8PWKG8teMxnULd6CySrK6Zr5xW66hhyEmZT/Kg82+vKcVAYAQWfygBHAgufFQFWB4TY0xLWFAnCd9AyFhPH/IpVDYgOz+tVcfVWBdciLfQJpNpe3NZ0F+FIxwUNtmJUkwXi9LwRoSC/ehOjJOSrtYZwIK3QL9KeEsiRCJojhITgf0tCwFIEcZyvegb0illgz2LU7jhzmv46q45eviQNz5BQsa1a8d9GPFvrxuaml5TeXtSVTM0kcShasbwTg01mkzJ7tIkIlXK0i8A/D+tcvT6vbaoZmD5I/dDFC1GoySXxY7xU+Iv/k/MUfE3tdu/Ku2fikijCH4qEtCgU/ISaOSZYCA5FOc3G+WuD18WLufAGsSjRo28d9eF1ozeWBLvmsym+bzQJJldp2H3Az8H71y9Pq9tqhJLL8E/rSKFQYw/gfmakJI+8Z7z8V4Ti1278q7Z+K7b8WqKMFvl/dcXrBKOWoO/1SKQjCSHcmrhS8brUvIC2QPxxoxF4hbn0pFWwz7kbCqmQnd/Woy+q3IpsxoK8pXRIof465DGkNJIHFaTJFmc2IPlpy5RVd7RkNih0f8AtXwYwkEVv80GslIhQM0oqYg9QasoWCc1P4O+oueXrZE1WIpk3G4/fvTkKwoeZuhOJ4damuhkpF6O6nOR/wAVvz0ufiohDSuT/mrgkQBvaMeJmZvWdYBzv9aY531suqGbh/T8NKQqOOkXM7mPn2poAnZQDBfn+NH4J7jgbxouxq709kqZlEIuaZu0qpBG9dAVAJXBUb4+UbvYg1inx9bg9jrGUHR2GpxJIeYpWo22RDDNvfFtYgrH1phwamXY5m6TpUo153DcnJp0ba3DLhh39D80ssugkBvoIAN3rQBHfSIOoFA0R5OHJ+KdDHHDzHfRs5pRXO2evgU7gAAgDAaxksv10khpmNQtjWy/I8SlDHubjxGjayCCtv4nOggrBQDhrv8A7eviyZNjh4OcnR3VfRR43KaYziYdqXQg81Tce5Ip4XvcuwUoPD2uhupVZWdZsuD0PUjFJDDq2y6Gf8pB+Qj2FKsQcEvxScKcH+VIR06pcd4WR+CmiFcG5y/qlVldehGaCCD7Bzx+axsSmGuc1JvdlXLYoAIMeizzNIjDsSm+uc1zmyj4HGgEGPsXKXjWZLcfoArATW/+NY9ITfPGt2ycfoArBU9/jQAQfZeRdKSwjSe9XOfFS73xQu6OtBvT0oBYj1G4oeVIYRpPernPip974oXdHWg3visIR/8AC/8A/9k=;" vertex="1" parent="7">
                    <mxGeometry x="530" y="124" width="182" height="182" as="geometry"/>
                </mxCell>
            </root>
        </mxGraphModel>
    </diagram>
</mxfile>